<svg id="Layer_1" data-name="Layer 1" xmlns="http://www.w3.org/2000/svg" viewBox="0 0 749.06 126.09"><defs><style>.cls-1{isolation:isolate;}</style></defs><title>minghubanner_v2</title><path d="M34.55,64.38c4.5-21.1,26.6-31.9,46.8-27,9.7,2.4,20.6,8.2,25.3,17.4,2.8,5.5,3.4,12.5,4.1,18.5.7,6.6.4,13-2.4,19.1-.8,1.7,1.8,3.3,2.6,1.5a35.26,35.26,0,0,0,3-18.7c-.5-6.4-1.2-13.5-3.6-19.4-4.2-10.8-15.9-17.9-26.7-20.9-22-6.2-47,5.2-52,28.6-.4,2,2.5,2.8,2.9.9Z" transform="translate(0 0)"/><path d="M36.65,50.18c-6.3-2.1-24.1-2.5-16.1,8.4,6.8,9.3,18.8,13.5,29,17.7,6.2,2.6,12,6,18.1,8.9,6.9,3.2,14.2,2.9,21.5,4.5,12.2,2.7,23.4,11,36.3,7.6a1.59,1.59,0,0,0,1.1-1.4,18.72,18.72,0,0,0-12.8-17.6c-1.8-.7-2.6,2.2-.8,2.9A15.87,15.87,0,0,1,123.55,96a16.52,16.52,0,0,1,1.1-1.4c-10.8,2.9-20.8-3.5-30.8-6.5-4.9-1.5-9.9-1.9-15-2.6-6.5-.9-11.7-3.8-17.4-6.8-7.9-4.1-16.4-6.9-24.3-10.9a44,44,0,0,1-12-8.4,13.07,13.07,0,0,1-2.2-2.5c-1.6-3.3.5-4.7,3.4-4.9a22.45,22.45,0,0,1,9.6,1.4c1.7.3,2.5-2.6.7-3.2Z" transform="translate(0 0)"/><path d="M41.05,43.88c-6.9-2.4-42.6-14.5-41,2.9.7,7.9,9.2,15.6,14.9,20.3,7.3,6,15.6,10.5,24.1,14.7a280.15,280.15,0,0,0,59,21,247.47,247.47,0,0,0,30.7,5.3c5.8.6,13.4.6,17.6-4.3,5.8-6.9-.8-15.4-6.2-20a62.8,62.8,0,0,0-27.4-13.4c-1.9-.4-2.7,2.5-.8,2.9a61.81,61.81,0,0,1,20.6,8.4c5.6,3.6,20.2,15.5,9.5,21.8-5.9,3.5-14.5,1.5-20.8.5-7.7-1.1-15.4-2.6-23.1-4.4a281,281,0,0,1-46.7-15.5c-13.5-5.9-27.6-12.5-38.3-22.9A42.78,42.78,0,0,1,5,50.88c-1.7-3.2-2.2-8.1,1.9-9.6a15.7,15.7,0,0,1,5.7-.6c9.5.4,19,2.9,27.9,6C42.15,47.38,43,44.48,41.05,43.88Z" transform="translate(0 0)"/><path d="M12,42.78a6.42,6.42,0,0,0-4.7,6.1c-.2,3.7,2.5,6.7,4.9,9.3,1.3,1.4,3.4-.7,2.1-2.1-1.5-1.6-3.3-3.4-3.8-5.6-.5-2,.2-4.3,2.4-4.8C14.65,45.28,13.85,42.38,12,42.78Z" transform="translate(0 0)"/><path d="M15.55,50.78c2.5-5.2,8.7-4.4,13.4-3.6,1.9.3,2.7-2.6.8-2.9-6-1-13.7-1.5-16.8,5C12.15,51.08,14.75,52.58,15.55,50.78Z" transform="translate(0 0)"/><path d="M15.65,61.78c2.7,2.2,5.4,4.4,8,6.6,1.5,1.2,3.6-.9,2.1-2.1-2.7-2.2-5.4-4.4-8-6.6C16.25,58.48,14.15,60.58,15.65,61.78Z" transform="translate(0 0)"/><path d="M30.25,78.08c2.3,32.6,49.3,48,72.5,26.8,1.4-1.3-.7-3.4-2.1-2.1-21.2,19.4-65.3,5.3-67.4-24.7-.1-1.9-3.1-2-3,0Z" transform="translate(0 0)"/><path d="M58,36.78c-3.5,2.5-7.1,5-10.6,7.4-1.6,1.1-.1,3.7,1.5,2.6,3.5-2.5,7.1-5,10.6-7.4C61.05,38.28,59.55,35.68,58,36.78Z" transform="translate(0 0)"/><path d="M68.55,35.28a49.8,49.8,0,0,0-12.9,10.3c-1.3,1.4.8,3.6,2.1,2.1a48.18,48.18,0,0,1,12.3-9.8C71.75,37,70.25,34.38,68.55,35.28Z" transform="translate(0 0)"/><path d="M76.65,35.58a50.19,50.19,0,0,0-12.6,9.9c-1.3,1.4.8,3.6,2.1,2.1a45.76,45.76,0,0,1,11.9-9.5C79.85,37.28,78.35,34.68,76.65,35.58Z" transform="translate(0 0)"/><path d="M83.55,37c-3.8,3.1-7.6,6.2-11.3,9.3-1.5,1.2.6,3.3,2.1,2.1,3.8-3.1,7.6-6.2,11.3-9.3C87.25,37.88,85.05,35.68,83.55,37Z" transform="translate(0 0)"/><path d="M90.35,39.18A143,143,0,0,0,77,50.48c-1.4,1.3.7,3.5,2.1,2.1a165.31,165.31,0,0,1,12.7-10.8c1.7-1.2.2-3.8-1.4-2.6Z" transform="translate(0 0)"/><path d="M96.55,42.68c-4.9,3.3-9.8,6.7-14.7,10-1.6,1.1-.1,3.7,1.5,2.6,4.9-3.3,9.8-6.7,14.7-10C99.65,44.18,98.15,41.58,96.55,42.68Z" transform="translate(0 0)"/><path d="M100,46.78c-4.2,2.9-8.5,5.7-12.7,8.6-1.6,1.1-.1,3.7,1.5,2.6,4.2-2.9,8.5-5.7,12.7-8.6C103.05,48.38,101.55,45.78,100,46.78Z" transform="translate(0 0)"/><path d="M103.15,50.58c-4.6,3.2-9.3,6.3-13.9,9.5-1.6,1.1-.1,3.7,1.5,2.6,4.6-3.2,9.3-6.3,13.9-9.5C106.25,52.08,104.75,49.48,103.15,50.58Z" transform="translate(0 0)"/><path d="M106.55,56.08A80,80,0,0,1,94,63.48c-1.7.8-.2,3.4,1.5,2.6a87.89,87.89,0,0,0,12.6-7.4C109.65,57.48,108.15,54.88,106.55,56.08Z" transform="translate(0 0)"/><path d="M107.15,60.68l-9.9,5.4c-1.7.9-.2,3.5,1.5,2.6l9.9-5.4a1.5,1.5,0,0,0-1.5-2.6Z" transform="translate(0 0)"/><path d="M108.65,64.88c-3.1,2-6.2,4-9.3,6.1-1.6,1.1-.1,3.7,1.5,2.6,3.1-2,6.2-4,9.3-6.1C111.75,66.38,110.25,63.78,108.65,64.88Z" transform="translate(0 0)"/><path d="M109.35,70.18c-2.9,1.8-5.8,3.5-8.7,5.3-1.6,1-.1,3.6,1.5,2.6,2.9-1.8,5.8-3.5,8.7-5.3C112.45,71.78,111,69.18,109.35,70.18Z" transform="translate(0 0)"/><path d="M110,75.38c-2.7,1.8-5.3,3.6-8,5.3-1.6,1.1-.1,3.7,1.5,2.6,2.7-1.8,5.3-3.6,8-5.3C113.05,76.88,111.55,74.28,110,75.38Z" transform="translate(0 0)"/><path d="M109.25,81.38c-1.8,1.1-3.5,2.2-5.3,3.4-1.6,1-.1,3.6,1.5,2.6,1.8-1.1,3.5-2.2,5.3-3.4C112.35,82.88,110.85,80.28,109.25,81.38Z" transform="translate(0 0)"/><path d="M109.15,86c-1.5.7-3.1,1.4-4.6,2.2-1.7.8-.2,3.4,1.5,2.6,1.5-.7,3.1-1.4,4.6-2.2C112.45,87.68,111,85.08,109.15,86Z" transform="translate(0 0)"/><path d="M108.45,10.68l.9,18c.1,1.9,3.1,1.9,3,0l-.9-18C111.35,8.78,108.35,8.78,108.45,10.68Z" transform="translate(0 0)"/><path d="M103.35,21.78a75,75,0,0,0,13.4-.6c1.9-.2,1.9-3.2,0-3a99.94,99.94,0,0,1-13.4.6C101.45,18.68,101.45,21.68,103.35,21.78Z" transform="translate(0 0)"/><path d="M108.05,16.58c-.1.1-.1.3-.2.4.1-.2-.1.1-.1.1.2-.2-.1.1-.2.1.2-.1-.1,0-.2.1a1.46,1.46,0,0,0,.8,2.8,3.52,3.52,0,0,0,2.5-2.1,1.72,1.72,0,0,0-.5-2.1,1.85,1.85,0,0,0-2.1.7Z" transform="translate(0 0)"/><path d="M110.55,19.68a5.79,5.79,0,0,1,1,.7,1.69,1.69,0,0,0,2.1-.5,1.72,1.72,0,0,0-.5-2.1,5.79,5.79,0,0,1-1-.7,1.53,1.53,0,0,0-1.78,2.49Z" transform="translate(0 0)"/><path d="M107.25,22.48c.1,0,.2.1.3.1-.1-.1-.1,0,.1,0a.52.52,0,0,1,.4.2c.3.2-.1-.1.2.1.1.2.3.3.4.5a1.48,1.48,0,0,0,2.1-2.1h0a5.44,5.44,0,0,0-2.7-1.7,1.46,1.46,0,0,0-1.8,1,1.48,1.48,0,0,0,1,1.88Z" transform="translate(0 0)"/><path d="M108.25,22.78a4,4,0,0,0,.4,1,1.4,1.4,0,0,0,1.69,1l.11,0a1.47,1.47,0,0,0,1-1.8,4,4,0,0,0-.4-1,1.46,1.46,0,0,0-2.8.8Z" transform="translate(0 0)"/><path d="M113,23.78c.1-.1.1-.3.2-.4-.1.2,0,0,.1-.1s.3-.2.1-.1c.1-.1.3-.1.4-.2a1.53,1.53,0,0,0-1.6-2.6,4.36,4.36,0,0,0-1.9,1.9,1.72,1.72,0,0,0,.5,2.1c.8.3,1.9.2,2.2-.6Z" transform="translate(0 0)"/><path d="M111,21.28a8.64,8.64,0,0,0-1.6,4.1,1.51,1.51,0,0,0,1,1.8,1.43,1.43,0,0,0,1.79-.95v-.05a8.3,8.3,0,0,1,1.3-3.4,1.59,1.59,0,0,0-.5-2.1,1.51,1.51,0,0,0-2,.6Z" transform="translate(0 0)"/><path d="M114.45,22.68a8.14,8.14,0,0,0,1.3-.7,1.59,1.59,0,0,0,.5-2.1,1.55,1.55,0,0,0-2.1-.5,8.14,8.14,0,0,0-1.3.7,1.59,1.59,0,0,0-.5,2.1A1.61,1.61,0,0,0,114.45,22.68Z" transform="translate(0 0)"/><path d="M108.55,14.08a13.25,13.25,0,0,0,4,6.1c1.5,1.3,3.6-.9,2.1-2.1a10.46,10.46,0,0,1-3.2-4.8C110.85,11.48,108,12.28,108.55,14.08Z" transform="translate(0 0)"/><path d="M108.35,12.68a5.82,5.82,0,0,1-3.7,5.7c-1.8.7-1,3.6.8,2.9a9,9,0,0,0,5.9-8.6c-.1-1.9-3.1-1.9-3,0Z" transform="translate(0 0)"/><path d="M123.75,83.48c2.5,1.9,12.2,10.8,6.9,13.8-1.7.9-.2,3.5,1.5,2.6,8.1-4.6-2.1-15.2-6.3-18.5C124.35,80.18,122.25,82.28,123.75,83.48Z" transform="translate(0 0)"/><path d="M138.15,93.78a3.07,3.07,0,0,1,1.81,4,2.72,2.72,0,0,1-.11.25c-.7,1.7-2.6,2.2-4.2,2.6-1.9.4-1.1,3.3.8,2.9,3.1-.7,6-2.4,6.6-5.7a6.36,6.36,0,0,0-4.1-6.9C137.15,90.08,136.35,93,138.15,93.78Z" transform="translate(0 0)"/><path d="M88.75,94.58a91.93,91.93,0,0,0,10.5,3.3,1.5,1.5,0,0,0,.8-2.9,96.78,96.78,0,0,1-10.5-3.3C87.65,91,87,93.88,88.75,94.58Z" transform="translate(0 0)"/><path d="M43.15,3.88c-4.8,4.8-6.2,12.6-.4,17.3,5.2,4.2,13.1,2.7,17.1-2.4a11.93,11.93,0,0,0-1.6-16.1c-4.6-4.1-11.8-3.3-15.9,1.1-1.3,1.4.8,3.5,2.1,2.1,6.6-7,18.3.6,13.9,9.4a9.29,9.29,0,0,1-11.8,4.6c-6.2-2.6-5.5-9.8-1.3-13.9a1.48,1.48,0,1,0-2.1-2.1Z" transform="translate(0 0)"/><path d="M109.25,109.48a8.91,8.91,0,0,0-5.8,10.1,8.72,8.72,0,0,0,17-3.8,8.31,8.31,0,0,0-9.81-6.47,8,8,0,0,0-1,.27c-1.8.6-1,3.5.8,2.9,3.2-1,6.4.5,7,3.9a5.57,5.57,0,0,1-4.55,6.43c-.22,0-.43.06-.65.07-6.3.5-8.3-8.4-2.3-10.6C111.85,111.78,111.05,108.88,109.25,109.48Z" transform="translate(0 0)"/><path d="M12.65,8.68a2.8,2.8,0,0,0,.8,3.2,1.93,1.93,0,0,0,2.71-.4,1.17,1.17,0,0,0,.19-.3c1.1-2.1-1.6-4-3.4-2.9a2.11,2.11,0,0,0-.7,2.9,2.44,2.44,0,0,0,2.4,1.3,2.18,2.18,0,0,0,1.9-2.2A2.83,2.83,0,0,0,15.45,8a2.48,2.48,0,0,0-3.4-.1,1.93,1.93,0,0,0,0,2.73,1.84,1.84,0,0,0,.78.47,1.51,1.51,0,0,0,1.8-1,1.43,1.43,0,0,0-1-1.79h0c.1,0,.1,0,.2.1l.5.5c-.2-.3-.2,0,.1.7-.3.2-.6.5-.9.7h0a.09.09,0,0,1-.1-.1h0c.1.1.1.1.1,0h0c-.1-.1-.1-.1,0,.1-.3-.4.1.1,0,.1s0-.5.1-.5a.73.73,0,0,1,1-.27l.1.07c-.2-.1.1.1.1.2a.83.83,0,0,1-.4,1c-.1,0-.1,0-.2.1h-.1c.2,0-.2-.1-.3-.1.2.1-.2-.2-.2-.2-.4-.6.5-1.5,1.1-1.3a.56.56,0,0,1,.5.3c.1.4.1.4.1.2h0c0-.1.1-.2.1-.3a1.46,1.46,0,0,0-1-1.8,1.34,1.34,0,0,0-1.75.74.75.75,0,0,0,0,.16Z" transform="translate(0 0)"/><path d="M7.35,92.68a4.11,4.11,0,0,0-4.1,3.7,3.81,3.81,0,0,0,3.1,4.3,4.44,4.44,0,0,0,4.9-2.2,4.87,4.87,0,0,0-1.1-5.7c-1.4-1.3-3.6.8-2.1,2.1,1,.9,1,3.1-.8,2.9-.5-.1-1.1-.4-1-1a1.11,1.11,0,0,1,1.1-1.1c2,.1,2-2.9,0-3Z" transform="translate(0 0)"/><path d="M718,63.58c-5-23.3-30-34.9-52-28.6-10.7,3.1-22.3,10-26.6,20.7-2.3,5.8-3,12.5-3.6,18.7a36.53,36.53,0,0,0,2.9,19.6c.8,1.8,3.4.2,2.6-1.5-2.7-5.8-3.1-11.8-2.5-18.1.6-6,1.2-13.2,3.9-18.8,4.5-9.6,15.8-15.7,25.7-18.1,20.2-5,42.2,5.9,46.8,27,.3,1.8,3.2,1,2.8-.9Z" transform="translate(0 0)"/><path d="M713.85,53.08a23.43,23.43,0,0,1,8.7-1.4,16.78,16.78,0,0,1,3.8.5c.4,1.2.8,2.3,1.2,3.5-.2.9-1.7,2.2-2.4,2.9a42.83,42.83,0,0,1-11.9,8.6c-8.1,4.2-16.9,7-25,11.2-5.2,2.7-10,5.5-15.8,6.5-5.3.9-10.6,1.1-15.8,2.6-10.3,3-20.5,9.7-31.5,6.8a16.52,16.52,0,0,0,1.1,1.4,15.82,15.82,0,0,1,10.6-14.8c1.8-.6,1-3.5-.8-2.9a18.92,18.92,0,0,0-12.8,17.6,1.42,1.42,0,0,0,1.1,1.4c12.9,3.4,24.1-4.9,36.3-7.6,7-1.5,14.1-1.2,20.7-4.2,6.4-2.8,12.4-6.5,18.9-9.2,10.1-4.2,22.2-8.4,29-17.7,8-10.9-9.9-10.5-16.1-8.4C711.25,50.78,712,53.68,713.85,53.08Z" transform="translate(0 0)"/><path d="M709.35,46.78a118.37,118.37,0,0,1,24.9-5.8c3-.3,7.2-1,9.8.9,5.5,4-.6,11.6-3.6,15.2-9.5,11.3-23.2,18.2-36.4,24.3A272.52,272.52,0,0,1,657.65,98c-7.6,2-15.2,3.6-23,4.9-7.2,1.2-15.1,3.2-22.4,2-5.2-.8-9.2-4-7.8-9.7,1.2-5,6-8.8,9.9-11.8a60,60,0,0,1,23.2-10.3c1.9-.4,1.1-3.3-.8-2.9a61.78,61.78,0,0,0-25.2,11.6c-5.4,4.2-12.7,11-10.2,18.6,1.9,5.8,8.2,7.5,13.6,7.7,9.3.4,19.3-2,28.4-3.8A278.43,278.43,0,0,0,703,85.08c16.3-7.4,35.2-16.5,44.3-32.8,3.7-6.7,1.8-13.4-6.3-14.5-10.4-1.5-23,2.6-32.7,6-1.5.7-.7,3.6,1.1,3Z" transform="translate(0 0)"/><path d="M736.85,45.68c2.2.5,2.8,2.8,2.4,4.8-.5,2.2-2.3,4-3.8,5.6-1.3,1.4.8,3.5,2.1,2.1,2.4-2.6,5-5.5,4.9-9.3a6.25,6.25,0,0,0-4.7-6.1C735.75,42.38,735,45.28,736.85,45.68Z" transform="translate(0 0)"/><path d="M736.65,49.28c-3.1-6.5-10.8-6-16.8-5-1.9.3-1.1,3.2.8,2.9,4.7-.8,10.9-1.6,13.4,3.6C735,52.58,737.55,51.08,736.65,49.28Z" transform="translate(0 0)"/><path d="M732,59.68c-2.7,2.2-5.4,4.4-8,6.6-1.5,1.2.6,3.3,2.1,2.1,2.7-2.2,5.4-4.4,8-6.6C735.55,60.58,733.35,58.48,732,59.68Z" transform="translate(0 0)"/><path d="M716.35,78.08c-2.1,30-46.2,44-67.4,24.7-1.4-1.3-3.6.8-2.1,2.1,23.2,21.2,70.3,5.8,72.5-26.8.1-2-2.9-1.9-3,0Z" transform="translate(0 0)"/><path d="M690.25,39.38c3.5,2.5,7.1,5,10.6,7.4,1.6,1.1,3.1-1.5,1.5-2.6-3.5-2.5-7.1-5-10.6-7.4C690.15,35.68,688.65,38.28,690.25,39.38Z" transform="translate(0 0)"/><path d="M679.55,37.88a47,47,0,0,1,12.3,9.8c1.3,1.4,3.4-.7,2.1-2.1a51.4,51.4,0,0,0-12.9-10.3c-1.6-.9-3.1,1.7-1.5,2.6Z" transform="translate(0 0)"/><path d="M671.45,38.18a43.78,43.78,0,0,1,11.9,9.5c1.3,1.4,3.4-.7,2.1-2.1a46.75,46.75,0,0,0-12.6-9.9,1.43,1.43,0,0,0-1.4,2.5Z" transform="translate(0 0)"/><path d="M664,39.08c3.8,3.1,7.6,6.2,11.3,9.3,1.5,1.2,3.6-.9,2.1-2.1-3.8-3.1-7.6-6.2-11.3-9.3C664.55,35.68,662.45,37.88,664,39.08Z" transform="translate(0 0)"/><path d="M657.75,41.68a119.94,119.94,0,0,1,12.7,10.8c1.4,1.3,3.5-.8,2.1-2.1a145.84,145.84,0,0,0-13.4-11.3c-1.4-1.1-2.9,1.5-1.4,2.6Z" transform="translate(0 0)"/><path d="M651.55,45.28c4.9,3.3,9.8,6.7,14.7,10,1.6,1.1,3.1-1.5,1.5-2.6-4.9-3.3-9.8-6.7-14.7-10C651.45,41.58,650,44.18,651.55,45.28Z" transform="translate(0 0)"/><path d="M648.15,49.38c4.2,2.9,8.5,5.7,12.7,8.6,1.6,1.1,3.1-1.5,1.5-2.6-4.2-2.9-8.5-5.7-12.7-8.6C648.05,45.78,646.55,48.28,648.15,49.38Z" transform="translate(0 0)"/><path d="M645.05,53.18c4.6,3.2,9.3,6.3,13.9,9.5,1.6,1.1,3.1-1.5,1.5-2.6-4.6-3.2-9.3-6.3-13.9-9.5C645,49.48,643.45,52.08,645.05,53.18Z" transform="translate(0 0)"/><path d="M641.55,58.68a80,80,0,0,0,12.6,7.4c1.7.8,3.3-1.8,1.5-2.6a87.89,87.89,0,0,1-12.6-7.4C641.55,54.88,640.05,57.48,641.55,58.68Z" transform="translate(0 0)"/><path d="M641,63.18l9.9,5.4c1.7.9,3.2-1.7,1.5-2.6l-9.9-5.4C640.75,59.68,639.25,62.28,641,63.18Z" transform="translate(0 0)"/><path d="M639.45,67.38c3.1,2,6.2,4,9.3,6.1,1.6,1.1,3.1-1.5,1.5-2.6-3.1-2-6.2-4-9.3-6.1C639.35,63.78,637.85,66.38,639.45,67.38Z" transform="translate(0 0)"/><path d="M638.85,72.78c2.9,1.8,5.8,3.5,8.7,5.3a1.5,1.5,0,0,0,1.5-2.6c-2.9-1.8-5.8-3.5-8.7-5.3a1.5,1.5,0,1,0-1.5,2.6Z" transform="translate(0 0)"/><path d="M638.25,78c2.7,1.8,5.3,3.6,8,5.3,1.6,1.1,3.1-1.5,1.5-2.6-2.7-1.8-5.3-3.6-8-5.3C638.15,74.28,636.65,76.88,638.25,78Z" transform="translate(0 0)"/><path d="M639,84c1.8,1.1,3.5,2.2,5.3,3.4,1.6,1,3.1-1.6,1.5-2.6-1.8-1.1-3.5-2.2-5.3-3.4S637.25,82.88,639,84Z" transform="translate(0 0)"/><path d="M639,88.58c1.5.7,3.1,1.4,4.6,2.2a1.72,1.72,0,0,0,2.1-.5,1.59,1.59,0,0,0-.5-2.1c-1.5-.7-3.1-1.4-4.6-2.2a1.72,1.72,0,0,0-2.1.5A1.61,1.61,0,0,0,639,88.58Z" transform="translate(0 0)"/><path d="M638.25,10.68l-.9,18c-.1,1.9,2.9,1.9,3,0l.9-18C641.35,8.78,638.35,8.78,638.25,10.68Z" transform="translate(0 0)"/><path d="M646.25,18.78a75,75,0,0,1-13.4-.6c-1.9-.2-1.9,2.8,0,3a99.94,99.94,0,0,0,13.4.6C648.25,21.68,648.25,18.68,646.25,18.78Z" transform="translate(0 0)"/><path d="M639.05,18.08a3.79,3.79,0,0,0,2.5,2.1,1.46,1.46,0,0,0,1.8-1,1.43,1.43,0,0,0-1-1.79h0c-.1,0-.4-.2-.2-.1,0,0-.3-.3-.2-.1,0,0-.3-.4-.1-.1-.1-.1-.1-.3-.2-.4a1.55,1.55,0,0,0-2.1-.5A1.4,1.4,0,0,0,639.05,18.08Z" transform="translate(0 0)"/><path d="M637.55,17.08a5.79,5.79,0,0,0-1,.7,1.46,1.46,0,0,0-.56,2l.06.1a1.5,1.5,0,0,0,2,.54l.06,0a5.79,5.79,0,0,0,1-.7,1.46,1.46,0,0,0,.56-2l-.06-.1A1.69,1.69,0,0,0,637.55,17.08Z" transform="translate(0 0)"/><path d="M641.55,19.58a6,6,0,0,0-2.7,1.7,1.48,1.48,0,0,0,2.1,2.1h0c.1-.2.3-.3.4-.5l.1-.1c-.1.1-.1.1.1,0,.4-.2.5-.3.8-.3a1.4,1.4,0,0,0,1-1.69l0-.11a1.49,1.49,0,0,0-1.8-1.1Z" transform="translate(0 0)"/><path d="M638.45,22a4,4,0,0,1-.4,1,1.43,1.43,0,0,0,1,1.79h0a1.51,1.51,0,0,0,1.8-1,4,4,0,0,1,.4-1,1.43,1.43,0,0,0-1-1.79h0a1.41,1.41,0,0,0-1.77.89Z" transform="translate(0 0)"/><path d="M639.25,22.28a4.36,4.36,0,0,0-1.9-1.9,1.72,1.72,0,0,0-2.1.5,1.59,1.59,0,0,0,.5,2.1c.1.1.3.1.4.2-.2-.1,0,0,.1.1s.2.3.1.1a.76.76,0,0,1,.2.4,1.55,1.55,0,0,0,2.1.5,1.41,1.41,0,0,0,.66-1.88l-.06-.12Z" transform="translate(0 0)"/><path d="M636.05,22.78a6.68,6.68,0,0,1,1.3,3.4,1.43,1.43,0,0,0,1.75,1h0a1.35,1.35,0,0,0,1.05-1.61,1.33,1.33,0,0,0-.05-.19,9.84,9.84,0,0,0-1.6-4.1,1.5,1.5,0,0,0-2-.54l-.06,0A1.61,1.61,0,0,0,636.05,22.78Z" transform="translate(0 0)"/><path d="M636.75,20.08a8.14,8.14,0,0,1-1.3-.7,1.61,1.61,0,0,0-2.1.5,1.59,1.59,0,0,0,.5,2.1,8.14,8.14,0,0,1,1.3.7,1.61,1.61,0,0,0,2.1-.5A1.59,1.59,0,0,0,636.75,20.08Z" transform="translate(0 0)"/><path d="M638.25,13.28a10.46,10.46,0,0,1-3.2,4.8c-1.5,1.3.7,3.4,2.1,2.1a13.25,13.25,0,0,0,4-6.1c.6-1.8-2.3-2.6-2.9-.8Z" transform="translate(0 0)"/><path d="M638.35,12.68a9,9,0,0,0,5.9,8.6c1.8.7,2.6-2.2.8-2.9a6,6,0,0,1-3.7-5.7,1.5,1.5,0,1,0-3,0Z" transform="translate(0 0)"/><path d="M623.75,81.38c-4.2,3.3-14.4,13.9-6.3,18.5a1.5,1.5,0,1,0,1.5-2.6c-5.3-3,4.5-11.9,6.9-13.8,1.6-1.2-.6-3.3-2.1-2.1Z" transform="translate(0 0)"/><path d="M610.75,90.88c-2.8,1.2-4.7,3.7-4.1,6.9.6,3.4,3.6,5,6.6,5.7,1.9.4,2.7-2.5.8-2.9-1.6-.4-3.5-.9-4.2-2.6a3.21,3.21,0,0,1,1.69-4.2h0C613.25,93,612.45,90.08,610.75,90.88Z" transform="translate(0 0)"/><path d="M660.15,91.68a91.93,91.93,0,0,1-10.5,3.3,1.5,1.5,0,1,0,.8,2.9,96.78,96.78,0,0,0,10.5-3.3C662.75,93.88,662,91,660.15,91.68Z" transform="translate(0 0)"/><path d="M704.35,6c3.8,3.8,5,10.4-.4,13.5a9.39,9.39,0,0,1-12.68-4l-.12-.24c-4.2-8.8,7.3-16.4,13.9-9.4,1.3,1.4,3.4-.7,2.1-2.1-4-4.2-10.8-5.2-15.5-1.4a12,12,0,0,0-2,16.4c4,5.1,11.7,6.5,16.9,2.5,6-4.6,4.6-12.6-.2-17.4C705.15,2.48,703,4.58,704.35,6Z" transform="translate(0 0)"/><path d="M639.65,112.38c6,2.2,4.1,11.1-2.3,10.6-7.9-.6-6-13,1.9-10.4,1.8.6,2.6-2.3.8-2.9a8.25,8.25,0,0,0-10.5,5.09,7,7,0,0,0-.3,1.11,8.72,8.72,0,0,0,17,3.8c1.1-4.3-1.7-8.6-5.8-10.1-1.9-.7-2.7,2.2-.8,2.8Z" transform="translate(0 0)"/><path d="M734.15,9.48s.2.5.1.3c0,.3,0,.2.1-.2l.3-.3c.4-.2.7-.1.9.5.5.2.6.5.4.8a.22.22,0,0,1-.2.2h0a.37.37,0,0,1-.3.1h0c-.2,0-.3-.1-.2,0s.1,0-.1-.1a1,1,0,0,1-.4-1c0-.1.3-.3.1-.2a.72.72,0,0,1,1.1.2c.1.1.2.4.1.5v-.1c.1-.2,0-.1,0,0a.09.09,0,0,1,.1-.1h0c.2-.1-.1,0,0,0h0c-.4.1-.7-.1-1-.7.2-.8.3-1,.1-.7l.5-.5c.1,0,.1,0,.2-.1a1.35,1.35,0,0,0-1.05,1.61,1.33,1.33,0,0,0,.05.19,1.4,1.4,0,0,0,1.69,1l.11,0A1.93,1.93,0,0,0,738,8.48a2.87,2.87,0,0,0-.18-.4,2.33,2.33,0,0,0-3.1-.7c-1.7.8-2.5,3.6-.6,4.7s4.4-1.3,3.2-3.2a2.36,2.36,0,0,0-4.3,1.2,2,2,0,0,0,2.8,1.9c1.4-.6,1.6-2,1.2-3.4a1.4,1.4,0,0,0-1.69-1l-.11,0a1.49,1.49,0,0,0-1.13,1.78l0,.12Z" transform="translate(0 0)"/><path d="M742.25,95.68a1.11,1.11,0,0,1,1.1,1.1c0,.6-.5.9-1,1-1.8.2-1.8-2-.8-2.9,1.5-1.3-.7-3.4-2.1-2.1a4.92,4.92,0,0,0-1.2,5.6,4.31,4.31,0,0,0,4.9,2.4,3.91,3.91,0,0,0,3.2-4.1,4.22,4.22,0,0,0-4.1-3.9c-1.9,0-1.9,3,0,2.9Z" transform="translate(0 0)"/><g class="cls-1"><g class="cls-1"><path d="M278,53.87a5.57,5.57,0,0,0,.95-.8c1.76-1.17,6.14-.07,7,1.68,1,13.06,4.89,39.42,4.89,40a5.55,5.55,0,0,0,.66,2.34c.88,2-.37,3.79-3,3.79-3.14.29-5.19-.95-6.06-3.58-.59-2.33-2.56-17.15-3.51-19.19-1.16,1-1.9,9.78-4.08,10.51-1.76.87-5.55,0-6.72-1.17,0-.29-.88-1.75-1.46-3.21-2.34-5-2.34-5.26-2,1.17,0,2.92,1.38,14.67,0,19.27a6,6,0,0,1-5.48,0c-2.63-1.17-2.7-1.17-3-9.93-.59-20.44-.59-28.4-.59-33.58,0-5.84,0-5.84.59-6.71,3.5-2.56,5.84.58,6.71,1.75,2.05,3.79,6.21,15.33,7.89,17.52Z" transform="translate(0 0)"/><path d="M303.13,59.56c-.3-6.71,0-7.29,1.16-7.59,2-.29,4.09,0,5.26,1.17.88,1.17,1.53,3.8,2.41,12.85.58,5.55,1.17,10.58,3.21,31.68,1,4.89-1.75,5.84-3.79,5.84-2.92-.29-5-1.46-5.33-4.09C305.46,95.33,303.42,66.57,303.13,59.56Z" transform="translate(0 0)"/><path d="M346.85,76.43c-1.17-25.84-1.17-24.89.59-25.84,5-1.1,6.13,1.24,6.42,1.82s2,36.57,2,39c.59,7,.59,7.16-.58,8.11s-3.21.94-5.55,0c-3.21-1.54-13.5-16-14.52-17.31.29,1.83.8,17.89.51,19.13-.3,1.82-.81,2.48-2.85,2.48-2,.29-4.38-.58-5-2.12-.3-.58-.59-3.72-.88-18.24-.29-27.09-.29-25.19.29-26.14a2.49,2.49,0,0,1,2.05-.58A4.5,4.5,0,0,1,334.08,61a8.24,8.24,0,0,0,1.38,3.65c.59,1.24,11.39,22.48,11.68,22.19C347.14,86.79,347.14,82.19,346.85,76.43Z" transform="translate(0 0)"/><path d="M375.39,59.56c2.63-4.16,5-6.49,7.82-7.29a9,9,0,0,1,6.27.8c5.62,2.7,3.14,6.49,2.34,7a6.5,6.5,0,0,1-4.45-.81c-.81-.51-.81-.51-1.83.29a45.5,45.5,0,0,0-5.69,9.86,48.45,48.45,0,0,0-3.43,15.91c0,6.28,1.68,11,5.47,11.17C394.52,97,393.06,84.31,392.55,84s-2.56,0-4.38,1c-2.34,1-4.45.8-6-.51s-.8-2.85.51-3.65c6.28-3.94,14.9-2.85,17.74,2.34,2,8.76-2.92,14.6-4.23,15.4a3.34,3.34,0,0,0-1.83,1c-3.35,2.85-8.83,3.87-13.79,2.85-14.16-3.73-13-20.3-12.7-23.43.43-7.67,5.11-16.43,5.4-16.94C373.57,62.12,374.37,60.88,375.39,59.56Z" transform="translate(0 0)"/><path d="M457.23,65.7c-.88-10.81-.59-12.85.58-13.14,1.75-.88,5.26,0,6.13,1.75.59,1.17.88,3.5,1.17,6.71.59,7.31,2.05,24,3.21,33.07.59,5.26.59,6.21.3,6.79-1.17,2.05-5.55,2.05-7.3,0-1.17-1.17-1.46-2.41-2.34-11.17-.29-4.09-.58-6.71-.88-6.71s-1.75.58-3.5,1.17c-4.09,1.45-3.8.58-2.92,7.88.88,9,.8,10-.66,10.58-1.75.88-5,0-6.13-1.46-.88-1.16-1.17-3-1.75-9.12-1.46-17-1.46-34.53,0-35.7,2.7-1.53,4.09-.29,5,.3,1.46,1.16,1.46,1.24,2,13.5.29,4.67.29,8.47.58,8.47,0,0,1.53-.59,3.58-1.17,3.5-1.17,3.5-1.46,3.5-2S457.52,70.37,457.23,65.7Z" transform="translate(0 0)"/><path d="M497.67,55.7a2.55,2.55,0,0,1,.95-3.36c6.57-1.83,8.32,2.12,8.61,3.36,1.24,3.06,1.9,17.88.95,25-1.68,16.94-7.45,20.37-10.51,21.9-10.51,2.63-13.29-3.65-14.53-5.84-2.19-4.31-3.06-10.8-3.06-20.07,0-12.34,1.53-21.54,4-22.49a6.6,6.6,0,0,1,5.84,1.24c.95,1,.95,4,.37,8.91a142.13,142.13,0,0,0-.66,18.54c.58,6.79,2.12,12.92,3.07,12.63,1.24-.29,4.3-7.37,5.25-12.63C499.79,73.58,499.49,59.05,497.67,55.7Z" transform="translate(0 0)"/></g></g></svg>